<svg xmlns="http://www.w3.org/2000/svg" viewBox="0 0 128 128" width="100%" height="100%">
  <defs>
    <linearGradient id="bgGrad" x1="0%" y1="0%" x2="100%" y2="100%">
      <stop offset="0%" stop-color="#2563eb" />
      <stop offset="100%" stop-color="#06b6d4" />
    </linearGradient>
    <filter id="shadow" x="-20%" y="-20%" width="140%" height="140%">
      <feDropShadow dx="0" dy="4" stdDeviation="6" flood-color="#000" flood-opacity="0.25" />
    </filter>
  </defs>

  <!-- 科技质感圆角外框 -->
  <rect x="8" y="8" width="112" height="112" rx="26" fill="url(#bgGrad)" filter="url(#shadow)" />

  <!-- 艺术对角渐变折光装饰 -->
  <path d="M8 34 Q 8 8 34 8 L 120 94 Q 120 120 94 120 Z" fill="rgba(255,255,255,0.08)" />

  <!-- 居中 PS 专属字符标识 -->
  <!-- 字母 P -->
  <path d="M34 38 L 56 38 C 66 38 72 43 72 52 C 72 61 66 66 56 66 L 46 66 L 46 90 L 34 90 Z M 46 49 L 46 56 L 55 56 C 58 56 60 54 60 52 C 60 50 58 49 55 49 Z" fill="#ffffff" />

  <!-- 字母 S -->
  <path d="M74 76 C 75 79 78 81 83 81 C 88 81 91 79 91 76 C 91 72 87 70 80 68 C 72 66 65 62 65 53 C 65 44 73 38 83 38 C 93 38 99 43 100 51 L 89 51 C 88 48 86 46 83 46 C 80 46 76 48 76 51 C 76 54 79 56 86 58 C 95 61 102 64 102 73 C 102 83 94 90 83 90 C 71 90 64 84 63 76 Z" fill="#38bdf8" />

  <!-- 创作者灵感光芒点缀（右下角微星标） -->
  <polygon points="102,28 105,34 111,37 105,40 102,46 99,40 93,37 99,34" fill="#fef08a" />
</svg>
